<?xml version="1.0" encoding="UTF-8" standalone="no"?>
<!-- Created with Inkscape (http://www.inkscape.org/) -->

<svg
   xmlns:dc="http://purl.org/dc/elements/1.1/"
   xmlns:cc="http://creativecommons.org/ns#"
   xmlns:rdf="http://www.w3.org/1999/02/22-rdf-syntax-ns#"
   xmlns:svg="http://www.w3.org/2000/svg"
   xmlns="http://www.w3.org/2000/svg"
   xmlns:sodipodi="http://sodipodi.sourceforge.net/DTD/sodipodi-0.dtd"
   xmlns:inkscape="http://www.inkscape.org/namespaces/inkscape"
   width="73.934547mm"
   height="14.248976mm"
   viewBox="0 0 73.934547 14.248976"
   version="1.1"
   id="svg8"
   inkscape:version="0.92.4 5da689c313, 2019-01-14"
   sodipodi:docname="TKL_logo.svg">
  <defs
     id="defs2" />
  <sodipodi:namedview
     id="base"
     pagecolor="#ffffff"
     bordercolor="#666666"
     borderopacity="1.0"
     inkscape:pageopacity="0.0"
     inkscape:pageshadow="2"
     inkscape:zoom="3.959798"
     inkscape:cx="125.45802"
     inkscape:cy="41.759401"
     inkscape:document-units="mm"
     inkscape:current-layer="g950"
     showgrid="false"
     inkscape:window-width="1920"
     inkscape:window-height="1052"
     inkscape:window-x="1920"
     inkscape:window-y="200"
     inkscape:window-maximized="1"
     fit-margin-top="0"
     fit-margin-left="0"
     fit-margin-right="0"
     fit-margin-bottom="0" />
  <metadata
     id="metadata5">
    <rdf:RDF>
      <cc:Work
         rdf:about="">
        <dc:format>image/svg+xml</dc:format>
        <dc:type
           rdf:resource="http://purl.org/dc/dcmitype/StillImage" />
        <dc:title />
      </cc:Work>
    </rdf:RDF>
  </metadata>
  <g
     inkscape:label="Layer 1"
     inkscape:groupmode="layer"
     id="layer1"
     transform="translate(-8.4457444,-150.16816)">
    <flowRoot
       xml:space="preserve"
       id="flowRoot834"
       style="font-style:normal;font-weight:normal;font-size:40px;line-height:1.25;font-family:sans-serif;letter-spacing:0px;word-spacing:0px;fill:#000000;fill-opacity:1;stroke:none"
       transform="matrix(0.10866949,0,0,0.10866949,17.716722,92.607516)"><flowRegion
         id="flowRegion836"><rect
           id="rect838"
           width="691.42859"
           height="328.57144"
           x="-40"
           y="525.37683" /></flowRegion><flowPara
         style="font-style:normal;font-variant:normal;font-weight:normal;font-stretch:normal;line-height:0;font-family:Azonix;-inkscape-font-specification:Azonix;text-align:center;text-anchor:middle"
         id="flowPara823">THE</flowPara><flowPara
         style="font-style:normal;font-variant:normal;font-weight:normal;font-stretch:normal;line-height:0;font-family:Azonix;-inkscape-font-specification:Azonix;text-align:center;text-anchor:middle"
         id="flowPara827">KEEN</flowPara><flowPara
         style="font-style:normal;font-variant:normal;font-weight:normal;font-stretch:normal;line-height:0;font-family:Azonix;-inkscape-font-specification:Azonix;text-align:center;text-anchor:middle"
         id="flowPara829">LADIES</flowPara></flowRoot>    <g
       aria-label="ZEKE"
       transform="matrix(0.12299604,0,0,0.24791828,15.454799,19.982602)"
       style="font-style:normal;font-weight:normal;font-size:40px;line-height:1.25;font-family:sans-serif;letter-spacing:0px;word-spacing:0px;fill:#000000;fill-opacity:1;stroke:none"
       id="flowRoot848">
      <rect
         style="fill:#ffffee;fill-opacity:1;stroke:#000000;stroke-width:0.63329101;stroke-linecap:round;stroke-linejoin:round;stroke-miterlimit:4;stroke-dasharray:none;stroke-dashoffset:0;stroke-opacity:1;paint-order:normal"
         id="rect859"
         width="160.52986"
         height="51.977291"
         x="-56.669373"
         y="525.43146"
         ry="3.2599447" />
    </g>
    <g
       id="g886"
       transform="translate(-22.651841,0.35643891)">
      <path
         d="m 88.084045,150.50744 v 0.54335 h 1.247526 v 2.4994 h 0.543347 v -2.4994 h 1.247526 v -0.54335 z"
         style="font-style:normal;font-variant:normal;font-weight:normal;font-stretch:normal;font-size:40px;line-height:0;font-family:Azonix;-inkscape-font-specification:Azonix;text-align:center;letter-spacing:0px;word-spacing:0px;text-anchor:middle;fill:#000000;fill-opacity:1;stroke:none;stroke-width:0.10866949"
         id="path843"
         inkscape:connector-curvature="0" />
      <path
         d="m 94.060864,150.5031 v 1.10408 h -1.956051 v -1.10408 h -0.543347 v 3.04274 h 0.543347 v -1.39531 h 1.956051 v 1.39531 h 0.543347 v -3.04274 z"
         style="font-style:normal;font-variant:normal;font-weight:normal;font-stretch:normal;font-size:40px;line-height:0;font-family:Azonix;-inkscape-font-specification:Azonix;text-align:center;letter-spacing:0px;word-spacing:0px;text-anchor:middle;fill:#000000;fill-opacity:1;stroke:none;stroke-width:0.10866949"
         id="path845"
         inkscape:connector-curvature="0" />
      <path
         d="m 95.860427,151.04644 h 2.221205 v -0.54334 h -2.221205 c -0.452065,0 -0.817194,0.36947 -0.817194,0.82154 v 1.39966 c 0,0.45207 0.365129,0.82154 0.817194,0.82154 h 2.221205 v -0.54334 h -2.221205 c -0.152137,0 -0.278194,-0.12606 -0.278194,-0.2782 v -0.57377 h 1.956051 v -0.54335 h -1.956051 v -0.28254 c 0,-0.15214 0.126057,-0.2782 0.278194,-0.2782 z"
         style="font-style:normal;font-variant:normal;font-weight:normal;font-stretch:normal;font-size:40px;line-height:0;font-family:Azonix;-inkscape-font-specification:Azonix;text-align:center;letter-spacing:0px;word-spacing:0px;text-anchor:middle;fill:#000000;fill-opacity:1;stroke:none;stroke-width:0.10866949"
         id="path847"
         inkscape:connector-curvature="0" />
    </g>
    <g
       id="g892"
       transform="translate(-21.039187,-1.2735742)">
      <path
         d="m 89.518484,155.93657 h -0.804155 l -0.847622,0.77808 -0.40425,0.36947 -0.447719,0.4086 v -1.55615 h -0.543347 v 3.04275 h 0.543347 v -0.752 l 0.76938,-0.69983 1.051921,1.45183 h 0.669404 l -1.317074,-1.8213 z"
         style="font-style:normal;font-variant:normal;font-weight:normal;font-stretch:normal;font-size:40px;line-height:0;font-family:Azonix;-inkscape-font-specification:Azonix;text-align:center;letter-spacing:0px;word-spacing:0px;text-anchor:middle;fill:#000000;fill-opacity:1;stroke:none;stroke-width:0.10866949"
         id="path849"
         inkscape:connector-curvature="0" />
      <path
         d="m 90.513895,156.47992 h 2.221204 v -0.54335 h -2.221204 c -0.452065,0 -0.817195,0.36948 -0.817195,0.82154 v 1.39967 c 0,0.45206 0.36513,0.82154 0.817195,0.82154 h 2.221204 v -0.54335 h -2.221204 c -0.152137,0 -0.278194,-0.12606 -0.278194,-0.27819 V 157.584 h 1.956051 v -0.54335 h -1.956051 v -0.28254 c 0,-0.15213 0.126057,-0.27819 0.278194,-0.27819 z"
         style="font-style:normal;font-variant:normal;font-weight:normal;font-stretch:normal;font-size:40px;line-height:0;font-family:Azonix;-inkscape-font-specification:Azonix;text-align:center;letter-spacing:0px;word-spacing:0px;text-anchor:middle;fill:#000000;fill-opacity:1;stroke:none;stroke-width:0.10866949"
         id="path851"
         inkscape:connector-curvature="0" />
      <path
         d="m 93.991315,156.47992 h 2.221205 v -0.54335 h -2.221205 c -0.452065,0 -0.817194,0.36948 -0.817194,0.82154 v 1.39967 c 0,0.45206 0.365129,0.82154 0.817194,0.82154 h 2.221205 v -0.54335 h -2.221205 c -0.152137,0 -0.278194,-0.12606 -0.278194,-0.27819 V 157.584 h 1.956051 v -0.54335 h -1.956051 v -0.28254 c 0,-0.15213 0.126057,-0.27819 0.278194,-0.27819 z"
         style="font-style:normal;font-variant:normal;font-weight:normal;font-stretch:normal;font-size:40px;line-height:0;font-family:Azonix;-inkscape-font-specification:Azonix;text-align:center;letter-spacing:0px;word-spacing:0px;text-anchor:middle;fill:#000000;fill-opacity:1;stroke:none;stroke-width:0.10866949"
         id="path853"
         inkscape:connector-curvature="0" />
      <path
         d="m 99.146593,155.93657 v 1.93867 l -1.956051,-1.50834 -0.543348,-0.41729 v 3.03405 h 0.543348 v -1.92562 l 1.956051,1.50833 0.543347,0.41729 v -3.04274 z"
         style="font-style:normal;font-variant:normal;font-weight:normal;font-stretch:normal;font-size:40px;line-height:0;font-family:Azonix;-inkscape-font-specification:Azonix;text-align:center;letter-spacing:0px;word-spacing:0px;text-anchor:middle;fill:#000000;fill-opacity:1;stroke:none;stroke-width:0.10866949"
         id="path855"
         inkscape:connector-curvature="0" />
    </g>
    <g
       id="g900"
       transform="translate(-19.176589,-2.903606)">
      <path
         d="m 85.521616,163.86944 c -0.191258,-0.0261 -0.343395,-0.17821 -0.369476,-0.36947 v -2.12558 h -0.543347 v 2.07342 c 0,0.15213 0.03477,0.29558 0.09998,0.42598 0.09128,0.19126 0.247766,0.34774 0.439024,0.44337 0.130404,0.0652 0.273847,0.1 0.425985,0.1 h 1.543107 v -0.54335 z"
         style="font-style:normal;font-variant:normal;font-weight:normal;font-stretch:normal;font-size:40px;line-height:0;font-family:Azonix;-inkscape-font-specification:Azonix;text-align:center;letter-spacing:0px;word-spacing:0px;text-anchor:middle;fill:#000000;fill-opacity:1;stroke:none;stroke-width:0.10866949"
         id="path857"
         inkscape:connector-curvature="0" />
      <path
         d="m 90.207446,163.86944 -1.273607,-2.49939 -1.273606,2.49939 -0.278194,0.54335 h 0.608549 l 0.278194,-0.54335 0.665057,-1.30403 0.665058,1.30403 0.278194,0.54335 h 0.608549 z"
         style="font-style:normal;font-variant:normal;font-weight:normal;font-stretch:normal;font-size:40px;line-height:0;font-family:Azonix;-inkscape-font-specification:Azonix;text-align:center;letter-spacing:0px;word-spacing:0px;text-anchor:middle;fill:#000000;fill-opacity:1;stroke:none;stroke-width:0.10866949"
         id="path859"
         inkscape:connector-curvature="0" />
      <path
         d="m 90.746449,161.37005 v 3.04274 h 1.521373 c 0.41729,0 0.79546,-0.16952 1.069307,-0.44772 0.03043,-0.0304 0.06085,-0.0608 0.08694,-0.0913 0.226033,-0.26515 0.360783,-0.60855 0.360783,-0.98237 0,-0.83893 -0.682445,-1.51703 -1.521373,-1.51703 z m 0.539,0.54769 h 0.978026 c 0.539,0 0.978025,0.43903 0.978025,0.97803 0,0.539 -0.439025,0.97802 -0.978025,0.97802 h -0.978026 z"
         style="font-style:normal;font-variant:normal;font-weight:normal;font-stretch:normal;font-size:40px;line-height:0;font-family:Azonix;-inkscape-font-specification:Azonix;text-align:center;letter-spacing:0px;word-spacing:0px;text-anchor:middle;fill:#000000;fill-opacity:1;stroke:none;stroke-width:0.10866949"
         id="path861"
         inkscape:connector-curvature="0" />
      <path
         d="m 94.767217,164.41279 v -3.04274 h -0.543348 v 3.04274 z"
         style="font-style:normal;font-variant:normal;font-weight:normal;font-stretch:normal;font-size:40px;line-height:0;font-family:Azonix;-inkscape-font-specification:Azonix;text-align:center;letter-spacing:0px;word-spacing:0px;text-anchor:middle;fill:#000000;fill-opacity:1;stroke:none;stroke-width:0.10866949"
         id="path863"
         inkscape:connector-curvature="0" />
      <path
         d="m 96.023438,161.91339 h 2.221204 v -0.54334 h -2.221204 c -0.452065,0 -0.817194,0.36947 -0.817194,0.82154 v 1.39966 c 0,0.45207 0.365129,0.82154 0.817194,0.82154 h 2.221204 v -0.54335 h -2.221204 c -0.152137,0 -0.278194,-0.12605 -0.278194,-0.27819 v -0.57377 h 1.956051 v -0.54335 h -1.956051 v -0.28254 c 0,-0.15214 0.126057,-0.2782 0.278194,-0.2782 z"
         style="font-style:normal;font-variant:normal;font-weight:normal;font-stretch:normal;font-size:40px;line-height:0;font-family:Azonix;-inkscape-font-specification:Azonix;text-align:center;letter-spacing:0px;word-spacing:0px;text-anchor:middle;fill:#000000;fill-opacity:1;stroke:none;stroke-width:0.10866949"
         id="path865"
         inkscape:connector-curvature="0" />
      <path
         d="m 101.55688,162.20897 v -0.0174 c 0,-0.45207 -0.36947,-0.82154 -0.82154,-0.82154 h -1.234483 c -0.452065,0 -0.817194,0.36947 -0.817194,0.82154 v 0.0174 c 0,0.17388 0.05216,0.33471 0.143444,0.46511 0.03043,0.0478 0.0652,0.0913 0.104322,0.1304 0.147791,0.14345 0.347743,0.23038 0.569428,0.23038 h 1.095393 c 0.23038,0 0.42163,0.18691 0.42163,0.41729 0,0.23038 -0.19125,0.41729 -0.42163,0.41729 h -0.951949 c -0.230379,0 -0.417291,-0.18691 -0.417291,-0.41729 h -0.543347 c 0,0.53031 0.430331,0.96064 0.960638,0.96064 h 0.951949 c 0.5303,0 0.96063,-0.43033 0.96063,-0.96064 0,-0.23038 -0.0826,-0.44337 -0.21733,-0.60855 -0.0131,-0.013 -0.0217,-0.0261 -0.0348,-0.0391 -0.17387,-0.19125 -0.42598,-0.31296 -0.70852,-0.31296 h -1.095393 c -0.152137,0 -0.278193,-0.12606 -0.278193,-0.2782 v -0.0174 c 0,-0.15213 0.126056,-0.27819 0.278193,-0.27819 h 1.234483 c 0.15214,0 0.2782,0.12606 0.2782,0.27819 v 0.0174 z"
         style="font-style:normal;font-variant:normal;font-weight:normal;font-stretch:normal;font-size:40px;line-height:0;font-family:Azonix;-inkscape-font-specification:Azonix;text-align:center;letter-spacing:0px;word-spacing:0px;text-anchor:middle;fill:#000000;fill-opacity:1;stroke:none;stroke-width:0.10866949"
         id="path867"
         inkscape:connector-curvature="0" />
    </g>
    <g
       id="g950"
       inkscape:export-xdpi="10000"
       inkscape:export-ydpi="10000">
      <g
         id="g908"
         transform="translate(-74.635018,1.0914301)"
         inkscape:export-xdpi="10000"
         inkscape:export-ydpi="10000">
        <path
           d="m 88.084045,150.50744 v 0.54335 h 1.247526 v 2.4994 h 0.543347 v -2.4994 h 1.247526 v -0.54335 z"
           style="font-style:normal;font-variant:normal;font-weight:normal;font-stretch:normal;font-size:40px;line-height:0;font-family:Azonix;-inkscape-font-specification:Azonix;text-align:center;letter-spacing:0px;word-spacing:0px;text-anchor:middle;fill:#000000;fill-opacity:1;stroke:none;stroke-width:0.10866949"
           id="path902"
           inkscape:connector-curvature="0" />
        <path
           d="m 94.060864,150.5031 v 1.10408 h -1.956051 v -1.10408 h -0.543347 v 3.04274 h 0.543347 v -1.39531 h 1.956051 v 1.39531 h 0.543347 v -3.04274 z"
           style="font-style:normal;font-variant:normal;font-weight:normal;font-stretch:normal;font-size:40px;line-height:0;font-family:Azonix;-inkscape-font-specification:Azonix;text-align:center;letter-spacing:0px;word-spacing:0px;text-anchor:middle;fill:#000000;fill-opacity:1;stroke:none;stroke-width:0.10866949"
           id="path904"
           inkscape:connector-curvature="0" />
        <path
           d="m 95.860427,151.04644 h 2.221205 v -0.54334 h -2.221205 c -0.452065,0 -0.817194,0.36947 -0.817194,0.82154 v 1.39966 c 0,0.45207 0.365129,0.82154 0.817194,0.82154 h 2.221205 v -0.54334 h -2.221205 c -0.152137,0 -0.278194,-0.12606 -0.278194,-0.2782 v -0.57377 h 1.956051 v -0.54335 h -1.956051 v -0.28254 c 0,-0.15214 0.126057,-0.2782 0.278194,-0.2782 z"
           style="font-style:normal;font-variant:normal;font-weight:normal;font-stretch:normal;font-size:40px;line-height:0;font-family:Azonix;-inkscape-font-specification:Azonix;text-align:center;letter-spacing:0px;word-spacing:0px;text-anchor:middle;fill:#000000;fill-opacity:1;stroke:none;stroke-width:0.10866949"
           id="path906"
           inkscape:connector-curvature="0" />
      </g>
      <g
         id="g918"
         transform="translate(-74.632845,-0.538583)"
         inkscape:export-xdpi="10000"
         inkscape:export-ydpi="10000">
        <path
           d="m 89.518484,155.93657 h -0.804155 l -0.847622,0.77808 -0.40425,0.36947 -0.447719,0.4086 v -1.55615 h -0.543347 v 3.04275 h 0.543347 v -0.752 l 0.76938,-0.69983 1.051921,1.45183 h 0.669404 l -1.317074,-1.8213 z"
           style="font-style:normal;font-variant:normal;font-weight:normal;font-stretch:normal;font-size:40px;line-height:0;font-family:Azonix;-inkscape-font-specification:Azonix;text-align:center;letter-spacing:0px;word-spacing:0px;text-anchor:middle;fill:#000000;fill-opacity:1;stroke:none;stroke-width:0.10866949"
           id="path910"
           inkscape:connector-curvature="0" />
        <path
           d="m 90.513895,156.47992 h 2.221204 v -0.54335 h -2.221204 c -0.452065,0 -0.817195,0.36948 -0.817195,0.82154 v 1.39967 c 0,0.45206 0.36513,0.82154 0.817195,0.82154 h 2.221204 v -0.54335 h -2.221204 c -0.152137,0 -0.278194,-0.12606 -0.278194,-0.27819 V 157.584 h 1.956051 v -0.54335 h -1.956051 v -0.28254 c 0,-0.15213 0.126057,-0.27819 0.278194,-0.27819 z"
           style="font-style:normal;font-variant:normal;font-weight:normal;font-stretch:normal;font-size:40px;line-height:0;font-family:Azonix;-inkscape-font-specification:Azonix;text-align:center;letter-spacing:0px;word-spacing:0px;text-anchor:middle;fill:#000000;fill-opacity:1;stroke:none;stroke-width:0.10866949"
           id="path912"
           inkscape:connector-curvature="0" />
        <path
           d="m 93.991315,156.47992 h 2.221205 v -0.54335 h -2.221205 c -0.452065,0 -0.817194,0.36948 -0.817194,0.82154 v 1.39967 c 0,0.45206 0.365129,0.82154 0.817194,0.82154 h 2.221205 v -0.54335 h -2.221205 c -0.152137,0 -0.278194,-0.12606 -0.278194,-0.27819 V 157.584 h 1.956051 v -0.54335 h -1.956051 v -0.28254 c 0,-0.15213 0.126057,-0.27819 0.278194,-0.27819 z"
           style="font-style:normal;font-variant:normal;font-weight:normal;font-stretch:normal;font-size:40px;line-height:0;font-family:Azonix;-inkscape-font-specification:Azonix;text-align:center;letter-spacing:0px;word-spacing:0px;text-anchor:middle;fill:#000000;fill-opacity:1;stroke:none;stroke-width:0.10866949"
           id="path914"
           inkscape:connector-curvature="0" />
        <path
           d="m 99.146593,155.93657 v 1.93867 l -1.956051,-1.50834 -0.543348,-0.41729 v 3.03405 h 0.543348 v -1.92562 l 1.956051,1.50833 0.543347,0.41729 v -3.04274 z"
           style="font-style:normal;font-variant:normal;font-weight:normal;font-stretch:normal;font-size:40px;line-height:0;font-family:Azonix;-inkscape-font-specification:Azonix;text-align:center;letter-spacing:0px;word-spacing:0px;text-anchor:middle;fill:#000000;fill-opacity:1;stroke:none;stroke-width:0.10866949"
           id="path916"
           inkscape:connector-curvature="0" />
      </g>
      <g
         id="g932"
         transform="translate(-74.635016,-2.1686148)"
         inkscape:export-xdpi="10000"
         inkscape:export-ydpi="10000">
        <path
           d="m 85.521616,163.86944 c -0.191258,-0.0261 -0.343395,-0.17821 -0.369476,-0.36947 v -2.12558 h -0.543347 v 2.07342 c 0,0.15213 0.03477,0.29558 0.09998,0.42598 0.09128,0.19126 0.247766,0.34774 0.439024,0.44337 0.130404,0.0652 0.273847,0.1 0.425985,0.1 h 1.543107 v -0.54335 z"
           style="font-style:normal;font-variant:normal;font-weight:normal;font-stretch:normal;font-size:40px;line-height:0;font-family:Azonix;-inkscape-font-specification:Azonix;text-align:center;letter-spacing:0px;word-spacing:0px;text-anchor:middle;fill:#000000;fill-opacity:1;stroke:none;stroke-width:0.10866949"
           id="path920"
           inkscape:connector-curvature="0" />
        <path
           d="m 90.207446,163.86944 -1.273607,-2.49939 -1.273606,2.49939 -0.278194,0.54335 h 0.608549 l 0.278194,-0.54335 0.665057,-1.30403 0.665058,1.30403 0.278194,0.54335 h 0.608549 z"
           style="font-style:normal;font-variant:normal;font-weight:normal;font-stretch:normal;font-size:40px;line-height:0;font-family:Azonix;-inkscape-font-specification:Azonix;text-align:center;letter-spacing:0px;word-spacing:0px;text-anchor:middle;fill:#000000;fill-opacity:1;stroke:none;stroke-width:0.10866949"
           id="path922"
           inkscape:connector-curvature="0" />
        <path
           d="m 90.746449,161.37005 v 3.04274 h 1.521373 c 0.41729,0 0.79546,-0.16952 1.069307,-0.44772 0.03043,-0.0304 0.06085,-0.0608 0.08694,-0.0913 0.226033,-0.26515 0.360783,-0.60855 0.360783,-0.98237 0,-0.83893 -0.682445,-1.51703 -1.521373,-1.51703 z m 0.539,0.54769 h 0.978026 c 0.539,0 0.978025,0.43903 0.978025,0.97803 0,0.539 -0.439025,0.97802 -0.978025,0.97802 h -0.978026 z"
           style="font-style:normal;font-variant:normal;font-weight:normal;font-stretch:normal;font-size:40px;line-height:0;font-family:Azonix;-inkscape-font-specification:Azonix;text-align:center;letter-spacing:0px;word-spacing:0px;text-anchor:middle;fill:#000000;fill-opacity:1;stroke:none;stroke-width:0.10866949"
           id="path924"
           inkscape:connector-curvature="0" />
        <path
           d="m 94.767217,164.41279 v -3.04274 h -0.543348 v 3.04274 z"
           style="font-style:normal;font-variant:normal;font-weight:normal;font-stretch:normal;font-size:40px;line-height:0;font-family:Azonix;-inkscape-font-specification:Azonix;text-align:center;letter-spacing:0px;word-spacing:0px;text-anchor:middle;fill:#000000;fill-opacity:1;stroke:none;stroke-width:0.10866949"
           id="path926"
           inkscape:connector-curvature="0" />
        <path
           d="m 96.023438,161.91339 h 2.221204 v -0.54334 h -2.221204 c -0.452065,0 -0.817194,0.36947 -0.817194,0.82154 v 1.39966 c 0,0.45207 0.365129,0.82154 0.817194,0.82154 h 2.221204 v -0.54335 h -2.221204 c -0.152137,0 -0.278194,-0.12605 -0.278194,-0.27819 v -0.57377 h 1.956051 v -0.54335 h -1.956051 v -0.28254 c 0,-0.15214 0.126057,-0.2782 0.278194,-0.2782 z"
           style="font-style:normal;font-variant:normal;font-weight:normal;font-stretch:normal;font-size:40px;line-height:0;font-family:Azonix;-inkscape-font-specification:Azonix;text-align:center;letter-spacing:0px;word-spacing:0px;text-anchor:middle;fill:#000000;fill-opacity:1;stroke:none;stroke-width:0.10866949"
           id="path928"
           inkscape:connector-curvature="0" />
        <path
           d="m 101.55688,162.20897 v -0.0174 c 0,-0.45207 -0.36947,-0.82154 -0.82154,-0.82154 h -1.234483 c -0.452065,0 -0.817194,0.36947 -0.817194,0.82154 v 0.0174 c 0,0.17388 0.05216,0.33471 0.143444,0.46511 0.03043,0.0478 0.0652,0.0913 0.104322,0.1304 0.147791,0.14345 0.347743,0.23038 0.569428,0.23038 h 1.095393 c 0.23038,0 0.42163,0.18691 0.42163,0.41729 0,0.23038 -0.19125,0.41729 -0.42163,0.41729 h -0.951949 c -0.230379,0 -0.417291,-0.18691 -0.417291,-0.41729 h -0.543347 c 0,0.53031 0.430331,0.96064 0.960638,0.96064 h 0.951949 c 0.5303,0 0.96063,-0.43033 0.96063,-0.96064 0,-0.23038 -0.0826,-0.44337 -0.21733,-0.60855 -0.0131,-0.013 -0.0217,-0.0261 -0.0348,-0.0391 -0.17387,-0.19125 -0.42598,-0.31296 -0.70852,-0.31296 h -1.095393 c -0.152137,0 -0.278193,-0.12606 -0.278193,-0.2782 v -0.0174 c 0,-0.15213 0.126056,-0.27819 0.278193,-0.27819 h 1.234483 c 0.15214,0 0.2782,0.12606 0.2782,0.27819 v 0.0174 z"
           style="font-style:normal;font-variant:normal;font-weight:normal;font-stretch:normal;font-size:40px;line-height:0;font-family:Azonix;-inkscape-font-specification:Azonix;text-align:center;letter-spacing:0px;word-spacing:0px;text-anchor:middle;fill:#000000;fill-opacity:1;stroke:none;stroke-width:0.10866949"
           id="path930"
           inkscape:connector-curvature="0" />
      </g>
    </g>
  </g>
</svg>
